<svg id="Ebene_1" data-name="Ebene 1" xmlns="http://www.w3.org/2000/svg" viewBox="0 0 607.2 152.85"><defs><style>.cls-1{fill:#f1ed42;}.cls-2{fill:#9fbce5;}.cls-3{fill:#a70387;}.cls-4{fill:#7a1f59;}.cls-5{fill:#6a76b9;}.cls-6{fill:#bf8b39;}.cls-7{fill:#b0cae9;}.cls-8{fill:#9c9bc9;}.cls-9{fill:#39268c;}.cls-10{fill:#71a3db;}.cls-11{fill:#423e42;}.cls-12{fill:#3e268c;}.cls-13{fill:#912132;}.cls-14{fill:#97aedb;}.cls-15{fill:#391787;}.cls-16{fill:#1e3659;}</style></defs><title>meteonorm-logo</title><rect class="cls-1" x="127.38" width="25.48" height="25.47"/><rect class="cls-2" x="101.9" y="25.47" width="25.48" height="25.47"/><rect class="cls-3" y="25.47" width="25.48" height="25.47"/><rect class="cls-4" x="25.48" y="50.95" width="25.48" height="25.48"/><rect class="cls-5" x="50.95" y="25.47" width="25.47" height="25.47"/><rect class="cls-6" x="127.38" y="101.9" width="25.48" height="25.48"/><rect class="cls-7" x="76.43" y="76.42" width="25.47" height="25.47"/><rect class="cls-8" x="50.95" y="50.95" width="25.47" height="25.48"/><rect class="cls-9" x="127.38" y="127.37" width="25.48" height="25.47"/><rect class="cls-5" x="25.48" y="76.42" width="25.48" height="25.47"/><rect class="cls-10" x="50.95" y="76.42" width="25.47" height="25.47"/><rect class="cls-11" y="76.42" width="25.48" height="25.47"/><rect class="cls-12" x="50.95" y="101.9" width="25.47" height="25.48"/><rect class="cls-13" x="76.43" width="25.47" height="25.47"/><rect class="cls-14" x="76.43" y="25.47" width="25.47" height="25.47"/><rect class="cls-7" x="152.85" y="101.9" width="25.48" height="25.48"/><rect class="cls-15" x="76.43" y="50.95" width="25.47" height="25.48"/><path class="cls-16" d="M218.83,86.42H207l6.59-47.14h-.33L193,86.42H181.5l-6.76-47.3h-.33l-6.59,47.3H156.2l8.32-59.67h18.79l6.1,44.17h.41l18.54-44.17h18.79Z"/><path class="cls-16" d="M230.79,68.87c0-16.4,10.47-26.21,24.23-26.21,10.88,0,15.08,5.27,15.08,11.78s-3.87,10-9.07,12.12c-5.85,2.47-13.35,3-17.31,3.3.08,4.12,1,8.24,7.17,8.24,4.45,0,6.84-2.56,8.08-6.1l9.89,2.39c-2.64,8.08-9.72,13-19.94,13C235.4,87.41,230.79,78.84,230.79,68.87Zm13.43-7a37.53,37.53,0,0,0,8.57-1.32c3.71-1.07,5.52-2.8,5.52-5.6,0-2.55-1.57-3.71-4.37-3.71C248.75,51.23,245,55.36,244.22,61.87Z"/><path class="cls-16" d="M304.72,84.45a27.26,27.26,0,0,1-12.2,3c-9.56,0-14-4.78-12.61-14.42l3-20.69h-6.43l1.15-8.82H284l1.81-12.36,12.69-1.9-2.06,14.26h11.37l-1.15,8.82H295.32l-2.8,19.53c-.58,3.79.17,6.26,4.12,6.26a14.68,14.68,0,0,0,6.76-1.81Z"/><path class="cls-16" d="M311,68.87c0-16.4,10.47-26.21,24.23-26.21,10.88,0,15.08,5.27,15.08,11.78s-3.87,10-9.07,12.12c-5.85,2.47-13.35,3-17.31,3.3.08,4.12,1,8.24,7.17,8.24,4.45,0,6.84-2.56,8.08-6.1l9.89,2.39c-2.64,8.08-9.72,13-19.94,13C315.6,87.41,311,78.84,311,68.87Zm13.43-7A37.52,37.52,0,0,0,333,60.55c3.71-1.07,5.52-2.8,5.52-5.6,0-2.55-1.57-3.71-4.37-3.71C328.95,51.23,325.24,55.36,324.41,61.87Z"/><path class="cls-16" d="M356.81,69.12c0-14.59,8.24-26.45,24.89-26.45,13.68,0,18.3,7.91,18.3,18.46,0,13.76-7.66,26.29-24.48,26.29C362.49,87.41,356.81,80.57,356.81,69.12Zm30.25-8.41c0-6.59-2.47-9.15-6.84-9.15-8.74,0-10.8,10.63-10.8,17.64,0,6.84,2.55,9.56,7.09,9.56C385.24,78.76,387.05,67.55,387.05,60.71Z"/><path class="cls-16" d="M418.78,86.42H406.34l6-42.94H424l-.74,5.6a.08.08,0,0,1,.08.08,21.22,21.22,0,0,1,15.16-6.51c7.09,0,11.21,3.54,11.21,11a26.65,26.65,0,0,1-.25,3.54l-4.12,29.26H432.88l3.87-27.28a17.6,17.6,0,0,0,.17-1.9c0-3.38-1.65-4.53-4.29-4.53-3.71,0-7.67,2.55-9.72,4.29Z"/><path class="cls-16" d="M455.71,69.12c0-14.59,8.24-26.45,24.89-26.45,13.68,0,18.3,7.91,18.3,18.46,0,13.76-7.66,26.29-24.48,26.29C461.4,87.41,455.71,80.57,455.71,69.12ZM486,60.71c0-6.59-2.47-9.15-6.84-9.15-8.74,0-10.8,10.63-10.8,17.64,0,6.84,2.55,9.56,7.09,9.56C484.14,78.76,486,67.55,486,60.71Z"/><path class="cls-16" d="M516,86.42H503.59l6-42.94H521l-.91,7.17h.17c3.38-4.2,7.58-8,14.09-8a20.29,20.29,0,0,1,2.22.16l-1.65,11.62a22.16,22.16,0,0,0-15,4.62Z"/><path class="cls-16" d="M577.27,48.76a20.33,20.33,0,0,1,14.09-6.1c8.65,0,12,5,10.8,14.26L598,86.42H585.6l3.87-27.61c.41-2.88.25-6-3.54-6-3,0-6.1,2.06-8.08,3.87l-4.12,29.75H561.28l3.87-27.61c.41-2.8.41-6-3.21-6-3,0-6.76,2.47-8.65,4.12l-4.12,29.5H536.73l6-42.94H554.2l-.74,5.69h.17c3.21-3.13,7.83-6.51,13.85-6.51C572.25,42.66,576,44.48,577.27,48.76Z"/></svg>