<?xml version="1.0" encoding="utf-8"?>
<!-- Generator: Adobe Illustrator 16.0.4, SVG Export Plug-In . SVG Version: 6.00 Build 0)  -->
<!DOCTYPE svg PUBLIC "-//W3C//DTD SVG 1.1//EN" "http://www.w3.org/Graphics/SVG/1.1/DTD/svg11.dtd">
<svg version="1.1" id="Ebene_1" xmlns="http://www.w3.org/2000/svg" xmlns:xlink="http://www.w3.org/1999/xlink" x="0px" y="0px"
	 width="634.521px" height="223px" viewBox="0 0 634.521 223" enable-background="new 0 0 634.521 223" xml:space="preserve">
<g>
	<g>
		<rect x="127.375" y="42.592" fill="#F9E807" width="25.476" height="25.471"/>
		<rect x="101.9" y="68.062" fill="#7EB9E6" width="25.475" height="25.475"/>
		<rect x="0" y="68.062" fill="#BF0780" width="25.476" height="25.475"/>
		<rect x="25.475" y="93.537" fill="#871F52" width="25.475" height="25.477"/>
		<rect x="50.95" y="68.062" fill="#5272B6" width="25.474" height="25.475"/>
		<rect x="127.375" y="144.488" fill="#D18025" width="25.476" height="25.477"/>
		<rect x="76.427" y="119.014" fill="#94C7EA" width="25.474" height="25.476"/>
		<rect x="50.95" y="93.537" fill="#9196C6" width="25.474" height="25.477"/>
		<rect x="127.375" y="169.965" fill="#312E87" width="25.476" height="25.475"/>
		<rect x="25.475" y="119.014" fill="#5272B6" width="25.475" height="25.476"/>
		<rect x="50.95" y="119.014" fill="#20A0DB" width="25.474" height="25.476"/>
		<rect x="0" y="119.014" fill="#3F3A3D" width="25.476" height="25.476"/>
		<rect x="50.95" y="144.488" fill="#382E87" width="25.474" height="25.477"/>
		<rect x="76.427" y="42.592" fill="#A41B2A" width="25.474" height="25.471"/>
		<rect x="76.427" y="68.062" fill="#7BAADB" width="25.474" height="25.475"/>
		<rect x="152.851" y="144.488" fill="#94C7EA" width="25.476" height="25.477"/>
		<rect x="76.427" y="93.537" fill="#352482" width="25.474" height="25.477"/>
	</g>
</g>
<g enable-background="new    ">
	<path fill="#FFFFFF" d="M195.51,91.354c3.379-3.296,8.241-6.098,14.093-6.098c8.653,0,12.032,5.026,10.796,14.257l-4.121,29.504
		h-12.444l3.874-27.608c0.412-2.885,0.247-6.016-3.544-6.016c-2.967,0-6.099,2.06-8.076,3.873l-4.121,29.751h-12.444l3.873-27.608
		c0.412-2.802,0.412-6.016-3.214-6.016c-3.049,0-6.758,2.472-8.653,4.12l-4.121,29.504h-12.444l6.016-42.938h11.455l-0.742,5.687
		c0.083,0,0.083,0,0.165,0c3.214-3.131,7.829-6.51,13.845-6.51C190.483,85.256,194.192,87.068,195.51,91.354z"/>
</g>
<g enable-background="new    ">
	<path fill="#FFFFFF" d="M227.079,111.463c0-16.4,10.467-26.207,24.229-26.207c10.878,0,15.082,5.274,15.082,11.784
		c0,6.429-3.874,9.973-9.065,12.115c-5.851,2.473-13.351,2.967-17.307,3.296c0.083,4.121,0.989,8.242,7.17,8.242
		c4.45,0,6.84-2.556,8.077-6.099l9.889,2.39c-2.637,8.076-9.725,13.021-19.944,13.021
		C231.695,130.006,227.079,121.435,227.079,111.463z M240.513,104.458c1.978-0.083,5.604-0.412,8.571-1.319
		c3.708-1.071,5.521-2.802,5.521-5.604c0-2.555-1.566-3.709-4.368-3.709C245.046,93.826,241.337,97.947,240.513,104.458z"/>
</g>
<g enable-background="new    ">
	<path fill="#FFFFFF" d="M301.418,127.039c-2.39,1.4-7.417,2.967-12.197,2.967c-9.56,0-14.01-4.78-12.609-14.423l2.967-20.686
		h-6.428l1.154-8.818h6.428l1.813-12.361l12.691-1.896l-2.06,14.257h11.373l-1.153,8.818h-11.373l-2.802,19.532
		c-0.577,3.791,0.165,6.264,4.121,6.264c2.555,0,4.862-0.824,6.758-1.813L301.418,127.039z"/>
</g>
<g enable-background="new    ">
	<path fill="#FFFFFF" d="M308.096,111.463c0-16.4,10.467-26.207,24.229-26.207c10.878,0,15.081,5.274,15.081,11.784
		c0,6.429-3.873,9.973-9.064,12.115c-5.852,2.473-13.352,2.967-17.307,3.296c0.082,4.121,0.988,8.242,7.17,8.242
		c4.449,0,6.84-2.556,8.076-6.099l9.889,2.39c-2.637,8.076-9.725,13.021-19.943,13.021
		C312.712,130.006,308.096,121.435,308.096,111.463z M321.53,104.458c1.978-0.083,5.604-0.412,8.57-1.319
		c3.709-1.071,5.521-2.802,5.521-5.604c0-2.555-1.565-3.709-4.367-3.709C326.063,93.826,322.354,97.947,321.53,104.458z"/>
	<path fill="#FFFFFF" d="M353.839,111.71c0-14.587,8.242-26.454,24.889-26.454c13.681,0,18.296,7.911,18.296,18.46
		c0,13.763-7.665,26.29-24.477,26.29C359.525,130.006,353.839,123.165,353.839,111.71z M384.085,103.304
		c0-6.593-2.473-9.147-6.841-9.147c-8.735,0-10.796,10.631-10.796,17.636c0,6.841,2.555,9.561,7.088,9.561
		C382.271,121.353,384.085,110.145,384.085,103.304z"/>
</g>
<g enable-background="new    ">
	<path fill="#FFFFFF" d="M416.722,129.017h-12.444l6.016-42.938h11.621l-0.742,5.604c0.082,0,0.082,0.082,0.082,0.082
		c3.215-3.131,8.076-6.51,15.164-6.51s11.209,3.543,11.209,10.961c0,1.153-0.083,2.307-0.248,3.543l-4.121,29.257h-12.443
		l3.873-27.278c0.082-0.742,0.165-1.319,0.165-1.896c0-3.379-1.648-4.533-4.286-4.533c-3.708,0-7.664,2.555-9.725,4.286
		L416.722,129.017z"/>
	<path fill="#FFFFFF" d="M453.235,111.71c0-14.587,8.241-26.454,24.889-26.454c13.68,0,18.295,7.911,18.295,18.46
		c0,13.763-7.664,26.29-24.477,26.29C458.921,130.006,453.235,123.165,453.235,111.71z M483.48,103.304
		c0-6.593-2.472-9.147-6.841-9.147c-8.735,0-10.795,10.631-10.795,17.636c0,6.841,2.555,9.561,7.087,9.561
		C481.667,121.353,483.48,110.145,483.48,103.304z"/>
	<path fill="#FFFFFF" d="M513.152,129.017h-12.444l6.016-42.938h11.373l-0.906,7.17c0.082,0,0.082,0,0.165,0
		c3.379-4.202,7.582-7.993,14.093-7.993c0.741,0,1.482,0.082,2.225,0.164l-1.648,11.62c-5.604-0.329-10.631,1.319-14.999,4.615
		L513.152,129.017z"/>
	<path fill="#FFFFFF" d="M573.974,91.354c3.379-3.296,8.241-6.098,14.093-6.098c8.653,0,12.032,5.026,10.796,14.257l-4.12,29.504
		h-12.445l3.874-27.608c0.412-2.885,0.247-6.016-3.544-6.016c-2.967,0-6.099,2.06-8.076,3.873l-4.121,29.751h-12.443l3.873-27.608
		c0.412-2.802,0.412-6.016-3.215-6.016c-3.049,0-6.758,2.472-8.652,4.12l-4.121,29.504h-12.444l6.017-42.938h11.455l-0.742,5.687
		c0.082,0,0.082,0,0.165,0c3.214-3.131,7.829-6.51,13.845-6.51C568.948,85.256,572.656,87.068,573.974,91.354z"/>
</g>
</svg>
